HIERARCHY
ROOT root
{
	OFFSET	0	13.1	24.9
	CHANNELS 6  Xposition Yposition Zposition Xrotation Yrotation Zrotation
	JOINT spine_1
	{
		OFFSET	0	9.99999	0
		CHANNELS 3  Xrotation Yrotation Zrotation
		JOINT spine_2
		{
			OFFSET	0	112	-10
			CHANNELS 3  Xrotation Yrotation Zrotation
			JOINT spine_3
			{
				OFFSET	0	206.5	19.3
				CHANNELS 3  Xrotation Yrotation Zrotation
				JOINT spine_4
				{
					OFFSET	0	110.4	14.6
					CHANNELS 3  Xrotation Yrotation Zrotation
					JOINT neck_1
					{
						OFFSET	0	71.8	-50.3
						CHANNELS 3  Xrotation Yrotation Zrotation
						JOINT neck_2
						{
							OFFSET	0	86.2	-25.8
							CHANNELS 3  Xrotation Yrotation Zrotation
							JOINT head_ee
							{
								OFFSET	0	179.8	-8.7
								CHANNELS 3  Xrotation Yrotation Zrotation
								End Site
								{
									OFFSET	1	0	0
								}
							}
						}
					}
					JOINT left_clavicle
					{
						OFFSET	-43.2	22.4	-70.8
						CHANNELS 3  Xrotation Yrotation Zrotation
						JOINT left_shoulder
						{
							OFFSET	-93.9	-5.79999	48.7
							CHANNELS 3  Xrotation Yrotation Zrotation
							JOINT left_elbow
							{
								OFFSET	-291.4	-30.8	15.2
								CHANNELS 3  Xrotation Yrotation Zrotation
								JOINT left_lowarm_twist
								{
									OFFSET	-110.7	-3.89999	13.6
									CHANNELS 3  Xrotation Yrotation Zrotation
									JOINT left_hand
									{
										OFFSET	-110.7	-3.89999	13.6
										CHANNELS 3  Xrotation Yrotation Zrotation
										JOINT left_ee
										{
											OFFSET	-80.8	-5.10001	12.1
											CHANNELS 3  Xrotation Yrotation Zrotation
											End Site
											{
												OFFSET	1	0	0
											}
										}
									}
								}
							}
						}
					}
					JOINT right_clavicle
					{
						OFFSET	43.2	22.4	-70.8
						CHANNELS 3  Xrotation Yrotation Zrotation
						JOINT right_shoulder
						{
							OFFSET	93.9	-5.79999	48.7
							CHANNELS 3  Xrotation Yrotation Zrotation
							JOINT right_elbow
							{
								OFFSET	291.4	-30.8	15.2
								CHANNELS 3  Xrotation Yrotation Zrotation
								JOINT right_lowarm_twist
								{
									OFFSET	110.7	-3.89999	13.6
									CHANNELS 3  Xrotation Yrotation Zrotation
									JOINT right_hand
									{
										OFFSET	110.7	-3.89999	13.6
										CHANNELS 3  Xrotation Yrotation Zrotation
										JOINT right_ee
										{
											OFFSET	80.8	-5.10001	12.1
											CHANNELS 3  Xrotation Yrotation Zrotation
											End Site
											{
												OFFSET	1	0	0
											}
										}
									}
								}
							}
						}
					}
				}
			}
		}
	}
	JOINT left_hip
	{
		OFFSET	-82.8	-127.5	0.300001
		CHANNELS 3  Xrotation Yrotation Zrotation
		JOINT left_knee
		{
			OFFSET	-28.2	-396.7	2.2
			CHANNELS 3  Xrotation Yrotation Zrotation
			JOINT left_ankle
			{
				OFFSET	-11.7	-411.3	35.4
				CHANNELS 3  Xrotation Yrotation Zrotation
				JOINT left_toes
				{
					OFFSET	0	-60	-88.6
					CHANNELS 3  Xrotation Yrotation Zrotation
					JOINT left_foot_ee
					{
						OFFSET	-22.5	-16.5	-42.2
						CHANNELS 3  Xrotation Yrotation Zrotation
						End Site
						{
							OFFSET	1	0	0
						}
					}
				}
			}
		}
	}
	JOINT right_hip
	{
		OFFSET	82.8	-127.5	0.300001
		CHANNELS 3  Xrotation Yrotation Zrotation
		JOINT right_knee
		{
			OFFSET	28.2	-396.7	2.2
			CHANNELS 3  Xrotation Yrotation Zrotation
			JOINT right_ankle
			{
				OFFSET	11.7	-411.3	35.4
				CHANNELS 3  Xrotation Yrotation Zrotation
				JOINT right_toes
				{
					OFFSET	0	-60	-88.6
					CHANNELS 3  Xrotation Yrotation Zrotation
					JOINT right_foot_ee
					{
						OFFSET	22.5	-16.5	-42.2
						CHANNELS 3  Xrotation Yrotation Zrotation
						End Site
						{
							OFFSET	1	0	0
						}
					}
				}
			}
		}
	}
}
MOTION
Frames: 8
Frame Time: 0.02
3177.02 653.055 -1669.29 -29.3729599115 4.40090617766 7.39637561521 9.65255 -0.14927 -0.775624 9.65288 -0.0996142 -0.78355 9.65352 -0.0656349 -0.787125 9.6527 -0.189119 -0.766883 -15.736 8.38373 6.57237 -15.7509 12.2508 9.05834 -0.0 0.0 -0.0 0.644091 20.5276 3.32636 -36.2134 -32.6374 71.5678 0.204339 -5.78012 0.0103158 33.9407 -0.0721613 -4.27236 2.93714 -11.8742 14.9062 -0.0 0.0 -0.0 13.1697 27.1972 -25.9222 30.0274 -40.142 -56.7631 0.693922 18.9704 -0.11594 32.3793 0.0132935 4.08168 6.25247 -26.7121 -54.571 0.0 0.0 0.0 71.588 35.3914 -15.9772 -7.62174 0.23796 1.14464 -3.64015 -28.6729 0.674349 -26.5433 0.0 0.0 -0.0 0.0 -0.0 29.417 6.70014 -0.444386 -30.3859 -0.029091 -4.60878 36.9273 -25.07 4.86506 20.868 -0.0 -0.0 0.0 0.0 0.0 
3147.88780299 656.566 -1699.09693607 -29.3748833723 3.85625793429 7.34604608327 9.80982 -0.223477 -1.29761 9.81074 -0.14046 -1.3092 9.81189 -0.0873575 -1.31381 9.8096 -0.293736 -1.28354 -14.1776 9.15674 7.12489 -14.1647 13.1605 9.64847 -0.0 0.0 -0.0 1.06306 21.1536 3.98614 -35.4206 -32.7629 71.9065 0.205596 -5.81545 0.0104429 33.8966 -0.0704275 -4.26699 3.1047 -12.6173 15.7273 -0.0 0.0 -0.0 12.7683 27.2783 -24.9876 26.3085 -39.4642 -56.4014 0.684329 18.7265 -0.112841 31.1075 -0.0308001 3.92523 6.46714 -27.1201 -56.9853 0.0 0.0 0.0 71.9856 35.576 -16.6408 -12.5723 0.310184 1.90061 -3.92843 -28.4995 0.726589 -26.2251 0.0 0.0 -0.0 0.0 -0.0 28.6836 9.37329 0.714766 -33.4476 0.103353 -5.05987 36.6073 -26.0047 4.86095 21.4216 -0.0 -0.0 0.0 0.0 0.0 
3130.46195545 658.364 -1723.88016677 -29.4336950073 4.21319473049 7.46015854943 9.93695 -0.249559 -1.54748 9.93827 -0.150595 -1.56022 9.93939 -0.090815 -1.56484 9.93613 -0.336783 -1.53087 -13.4483 10.4728 7.88124 -13.428 15.0844 10.6816 -0.0 0.0 -0.0 0.648292 21.5562 3.42775 -34.8986 -33.6703 72.6026 0.239284 -6.76013 0.0141325 33.189 -0.0431705 -4.18075 3.30675 -13.0899 16.9164 -0.0 0.0 -0.0 11.9169 27.4275 -23.0236 22.1226 -37.524 -58.2636 0.6553 17.9844 -0.103699 29.6303 -0.0776338 3.74237 6.63237 -27.9045 -58.9251 0.0 0.0 0.0 71.9214 35.8505 -17.1157 -16.1985 0.321533 2.45677 -2.39392 -27.8312 0.437267 -25.7444 0.0 0.0 -0.0 0.0 -0.0 27.3712 8.62827 1.87388 -33.2441 0.0937998 -5.0301 34.7403 -25.3592 4.64456 20.8406 -0.0 -0.0 0.0 0.0 0.0 
3129.97124887 658.364 -1723.45782106 -29.4534219944 4.6634405172 7.7150735384 9.93695 -0.249559 -1.54748 9.93827 -0.150595 -1.56022 9.93939 -0.090815 -1.56484 9.93613 -0.336783 -1.53087 -13.4483 10.4728 7.88124 -13.428 15.0844 10.6816 -0.0 0.0 -0.0 0.648292 21.5562 3.42775 -34.8986 -33.6703 72.6026 0.239284 -6.76013 0.0141325 33.189 -0.0431705 -4.18075 3.30675 -13.0899 16.9164 -0.0 0.0 -0.0 11.9169 27.4275 -23.0236 22.1226 -37.524 -58.2636 0.6553 17.9844 -0.103699 29.6303 -0.0776338 3.74237 6.63237 -27.9045 -58.9251 0.0 0.0 0.0 71.9214 35.8505 -17.1157 -16.1985 0.321533 2.45677 -2.39392 -27.8312 0.437267 -25.7444 0.0 0.0 -0.0 0.0 -0.0 27.3712 8.62827 1.87388 -33.2441 0.0937998 -5.0301 34.7403 -25.3592 4.64456 20.8406 -0.0 -0.0 0.0 0.0 0.0 
3092.69952284 666.818 -1783.9186931 -28.6854287328 3.71230154613 6.59698987794 9.91231 -0.180697 -1.41384 9.91342 -0.0903733 -1.42247 9.9132 -0.035233 -1.42491 9.91046 -0.259806 -1.40147 -12.8834 13.2136 9.3205 -12.8721 19.3085 12.7887 -0.0 0.0 -0.0 1.75523 20.2543 4.9256 -32.8721 -31.3702 69.361 0.324207 -9.12414 0.0258692 35.0233 -0.116025 -4.40361 3.62231 -8.65986 21.2488 -0.0 0.0 -0.0 11.2029 25.7064 -21.6018 12.9697 -34.2793 -60.9478 0.633967 17.4349 -0.0972094 28.5258 -0.109561 3.6049 6.97093 -28.7323 -63.4182 0.0 0.0 0.0 69.054 35.9843 -17.6795 -22.5919 0.255856 3.43505 0.215588 -24.5335 -0.0375734 -23.9877 0.0 0.0 -0.0 0.0 -0.0 28.3455 12.8892 2.71528 -38.4939 0.373743 -5.78629 29.2373 -25.5542 4.03206 21.8742 -0.0 -0.0 0.0 0.0 0.0 
3091.96363446 671.738 -1801.26498047 -27.9526559813 5.77507121594 7.46347507968 9.61029 -0.231753 -1.31807 9.61124 -0.147418 -1.33014 9.61259 -0.0888191 -1.33533 9.61022 -0.298578 -1.30456 -13.2231 12.9563 10.3094 -13.1411 18.2759 13.6876 -0.0 0.0 -0.0 2.21827 17.2578 5.44765 -31.7311 -30.9767 68.4385 0.380882 -10.685 0.0356186 37.244 -0.21373 -4.67016 3.48591 -7.09669 20.9767 -0.0 0.0 -0.0 11.2607 23.6906 -21.9383 10.7741 -34.4795 -60.6516 0.669369 18.3449 -0.108085 27.019 -0.148828 3.41643 7.0989 -28.7121 -65.4249 0.0 0.0 0.0 66.812 34.1896 -16.6823 -23.7413 0.23249 3.60989 -0.461695 -23.7006 0.0798758 -24.0244 0.0 0.0 -0.0 0.0 -0.0 29.809 17.1397 0.117923 -42.5842 0.639306 -6.35621 28.1433 -26.9702 3.93757 21.3905 -0.0 -0.0 0.0 0.0 0.0 
3091.38914882 671.738 -1800.89295633 -27.9647264859 5.99568034603 7.58119145976 9.61029 -0.231753 -1.31807 9.61124 -0.147418 -1.33014 9.61259 -0.0888191 -1.33533 9.61022 -0.298578 -1.30456 -13.2231 12.9563 10.3094 -13.1411 18.2759 13.6876 -0.0 0.0 -0.0 2.21827 17.2578 5.44765 -31.7311 -30.9767 68.4385 0.380882 -10.685 0.0356186 37.244 -0.21373 -4.67016 3.48591 -7.09669 20.9767 -0.0 0.0 -0.0 11.2607 23.6906 -21.9383 10.7741 -34.4795 -60.6516 0.669369 18.3449 -0.108085 27.019 -0.148828 3.41643 7.0989 -28.7121 -65.4249 0.0 0.0 0.0 66.812 34.1896 -16.6823 -23.7413 0.23249 3.60989 -0.461695 -23.7006 0.0798758 -24.0244 0.0 0.0 -0.0 0.0 -0.0 29.809 17.1397 0.117923 -42.5842 0.639306 -6.35621 28.1433 -26.9702 3.93757 21.3905 -0.0 -0.0 0.0 0.0 0.0 
3091.12384231 671.738 -1800.71994668 -27.9704683307 6.09776389954 7.63569947069 9.61029 -0.231753 -1.31807 9.61124 -0.147418 -1.33014 9.61259 -0.0888191 -1.33533 9.61022 -0.298578 -1.30456 -13.2231 12.9563 10.3094 -13.1411 18.2759 13.6876 -0.0 0.0 -0.0 2.21827 17.2578 5.44765 -31.7311 -30.9767 68.4385 0.380882 -10.685 0.0356186 37.244 -0.21373 -4.67016 3.48591 -7.09669 20.9767 -0.0 0.0 -0.0 11.2607 23.6906 -21.9383 10.7741 -34.4795 -60.6516 0.669369 18.3449 -0.108085 27.019 -0.148828 3.41643 7.0989 -28.7121 -65.4249 0.0 0.0 0.0 66.812 34.1896 -16.6823 -23.7413 0.23249 3.60989 -0.461695 -23.7006 0.0798758 -24.0244 0.0 0.0 -0.0 0.0 -0.0 29.809 17.1397 0.117923 -42.5842 0.639306 -6.35621 28.1433 -26.9702 3.93757 21.3905 -0.0 -0.0 0.0 0.0 0.0 
